<svg xmlns="http://www.w3.org/2000/svg" viewBox="0 0 400 400" width="400" height="400"><defs></defs><ellipse cx="200" cy="318" rx="150" ry="14" fill="#000" opacity="0.08"/><rect x="58" y="120" width="284" height="190" rx="16" fill="#2B2326"/><rect x="66" y="128" width="268" height="174" rx="12" fill="#3A3133"/><rect x="84" y="146" width="68" height="62" rx="8" fill="#E7C2B7"/><ellipse cx="108" cy="166" rx="14" ry="8" fill="#fff" opacity="0.18"/><rect x="164" y="146" width="68" height="62" rx="8" fill="#D9A08E"/><ellipse cx="188" cy="166" rx="14" ry="8" fill="#fff" opacity="0.18"/><rect x="244" y="146" width="68" height="62" rx="8" fill="#CC7F66"/><ellipse cx="268" cy="166" rx="14" ry="8" fill="#fff" opacity="0.18"/><rect x="84" y="222" width="68" height="62" rx="8" fill="#AB6650"/><ellipse cx="108" cy="242" rx="14" ry="8" fill="#fff" opacity="0.18"/><rect x="164" y="222" width="68" height="62" rx="8" fill="#834E3D"/><ellipse cx="188" cy="242" rx="14" ry="8" fill="#fff" opacity="0.18"/><rect x="244" y="222" width="68" height="62" rx="8" fill="#643C2F"/><ellipse cx="268" cy="242" rx="14" ry="8" fill="#fff" opacity="0.18"/><rect x="58" y="70" width="284" height="56" rx="14" fill="#2B2326"/><text x="200.0" y="106" text-anchor="middle" font-family="Georgia, serif" font-size="16" font-weight="700" letter-spacing="4" fill="#C8A46A">MIRA BLOOM</text></svg>