<svg xmlns="http://www.w3.org/2000/svg" viewBox="0 0 400 400" width="400" height="400"><defs><linearGradient id="b" x1="0" y1="0" x2="1" y2="0"><stop offset="0" stop-color="#BDAD97"/><stop offset="0.35" stop-color="#EFE2D1"/><stop offset="0.6" stop-color="#E6D3B8"/><stop offset="1" stop-color="#AA9C88"/></linearGradient><linearGradient id="c" x1="0" y1="0" x2="1" y2="0"><stop offset="0" stop-color="#C58493"/><stop offset="0.35" stop-color="#F5C2CE"/><stop offset="0.6" stop-color="#F0A1B3"/><stop offset="1" stop-color="#B27784"/></linearGradient><linearGradient id="g" x1="0" y1="0" x2="1" y2="0"><stop offset="0" stop-color="#967B50"/><stop offset="0.35" stop-color="#E1CDAD"/><stop offset="0.6" stop-color="#C8A46A"/><stop offset="1" stop-color="#866E47"/></linearGradient></defs><ellipse cx="200" cy="352" rx="70" ry="14" fill="#000" opacity="0.08"/><rect x="160" y="200" width="80" height="150" rx="6" fill="url(#b)"/><rect x="168" y="168" width="64" height="40" rx="3" fill="url(#g)"/><path d="M176 168 L176 92 Q200 64 224 76 L224 168 Z" fill="url(#c)"/><path d="M182 160 L182 98 Q194 84 200 82 L200 160 Z" fill="#fff" opacity="0.18"/><text x="200.0" y="290" text-anchor="middle" font-family="Georgia, serif" font-size="12" font-weight="600" letter-spacing="2" fill="#8C7350">MIRA</text><g transform="translate(270 140) rotate(18)"><rect x="0" y="0" width="70" height="150" rx="6" fill="url(#b)"/><rect x="22" y="-46" width="26" height="50" rx="4" fill="#fff" opacity="0"/></g></svg>