<svg xmlns="http://www.w3.org/2000/svg" viewBox="0 0 1600 480" width="1600" height="480" preserveAspectRatio="xMidYMid slice"><defs><linearGradient id="bg" x1="0" y1="0" x2="1" y2="1"><stop offset="0" stop-color="#F5ECE3"/><stop offset="1" stop-color="#FBF5EE"/></linearGradient></defs><rect width="1600" height="480" fill="url(#bg)"/><path d="M960 560 L960 300.0 A260.0 260.0 0 0 1 1480 300.0 L1480 560 Z" fill="#EBD9C8"/><g transform="translate(96.0 374.40000000000003) rotate(-30) scale(1.0)" opacity="0.8"><path d="M0 0 Q40 -60 0 -130 Q-40 -60 0 0 Z" fill="#A8B5A2"/><path d="M0 -6 L0 -120" stroke="#fff" stroke-opacity="0.5" stroke-width="2"/></g><g transform="translate(1504.0 105.6) rotate(140) scale(0.8)" opacity="0.8"><path d="M0 0 Q40 -60 0 -130 Q-40 -60 0 0 Z" fill="#B9C4B2"/><path d="M0 -6 L0 -120" stroke="#fff" stroke-opacity="0.5" stroke-width="2"/></g><g transform="translate(1440.0 408.0) rotate(200) scale(0.7)" opacity="0.8"><path d="M0 0 Q40 -60 0 -130 Q-40 -60 0 0 Z" fill="#C9D2C2"/><path d="M0 -6 L0 -120" stroke="#fff" stroke-opacity="0.5" stroke-width="2"/></g><g transform="translate(1000 170) scale(0.75)"><defs><linearGradient id="t0" x1="0" y1="0" x2="1" y2="0"><stop offset="0" stop-color="#D2C7B7"/><stop offset="0.35" stop-color="#F4EBDF"/><stop offset="0.6" stop-color="#EFE2D0"/><stop offset="1" stop-color="#BFB5A6"/></linearGradient><linearGradient id="k0" x1="0" y1="0" x2="1" y2="0"><stop offset="0" stop-color="#726D64"/><stop offset="0.35" stop-color="#ABA69E"/><stop offset="0.6" stop-color="#8F887D"/><stop offset="1" stop-color="#67625A"/></linearGradient></defs><ellipse cx="200" cy="352" rx="70" ry="14" fill="#000" opacity="0.08"/><path d="M150 60 L250 60 L236 300 L164 300 Z" fill="url(#t0)"/><rect x="148" y="52" width="104" height="14" rx="3" fill="#D7CBBB"/><rect x="170" y="296" width="60" height="54" rx="8" fill="url(#k0)"/><rect x="164" y="76" width="14" height="210" rx="7" fill="#fff" opacity="0.25"/><text x="200.0" y="160" text-anchor="middle" font-family="Georgia, serif" font-size="12" font-weight="700" letter-spacing="2" fill="#3A2E30">IVY &amp; ASH</text><text x="200.0" y="182" text-anchor="middle" font-family="Georgia, serif" font-size="8" font-weight="500" letter-spacing="2" fill="#3A2E30">SPF · CARE</text></g><g transform="translate(900 70) scale(0.95)"><defs><linearGradient id="t1" x1="0" y1="0" x2="1" y2="0"><stop offset="0" stop-color="#9D7A5E"/><stop offset="0.35" stop-color="#CEB19A"/><stop offset="0.6" stop-color="#B9906E"/><stop offset="1" stop-color="#8E6F55"/></linearGradient><linearGradient id="k1" x1="0" y1="0" x2="1" y2="0"><stop offset="0" stop-color="#BDB8B3"/><stop offset="0.35" stop-color="#F2EEE9"/><stop offset="0.6" stop-color="#ECE6E0"/><stop offset="1" stop-color="#AAA6A1"/></linearGradient></defs><ellipse cx="200" cy="352" rx="84" ry="14" fill="#000" opacity="0.08"/><path d="M190 44 L262 44 Q270 44 270 52 L270 60 L210 60 L210 86 L190 86 Z" fill="url(#k1)"/><rect x="184" y="84" width="32" height="42" rx="4" fill="url(#k1)"/><rect x="170" y="122" width="60" height="22" rx="6" fill="url(#k1)"/><rect x="134" y="140" width="132" height="210" rx="26" fill="url(#t1)"/><rect x="148" y="156" width="20" height="178" rx="10" fill="#fff" opacity="0.28"/><rect x="154" y="210" width="92" height="90" rx="6" fill="#fff" opacity="0.72"/><text x="200.0" y="248" text-anchor="middle" font-family="Georgia, serif" font-size="11" font-weight="700" letter-spacing="2" fill="#5A4A44">IVY &amp; ASH</text><text x="200.0" y="270" text-anchor="middle" font-family="Georgia, serif" font-size="9" font-weight="500" letter-spacing="3" fill="#8A7A74">BODY</text></g><g transform="translate(1080 40) scale(1.05)"><defs><linearGradient id="t2" x1="0" y1="0" x2="1" y2="0"><stop offset="0" stop-color="#C6B8AA"/><stop offset="0.35" stop-color="#F0E4D8"/><stop offset="0.6" stop-color="#E9D8C8"/><stop offset="1" stop-color="#B3A69A"/></linearGradient><linearGradient id="k2" x1="0" y1="0" x2="1" y2="0"><stop offset="0" stop-color="#BDB8B3"/><stop offset="0.35" stop-color="#F2EEE9"/><stop offset="0.6" stop-color="#ECE6E0"/><stop offset="1" stop-color="#AAA6A1"/></linearGradient></defs><ellipse cx="200" cy="352" rx="84" ry="14" fill="#000" opacity="0.08"/><path d="M190 44 L262 44 Q270 44 270 52 L270 60 L210 60 L210 86 L190 86 Z" fill="url(#k2)"/><rect x="184" y="84" width="32" height="42" rx="4" fill="url(#k2)"/><rect x="170" y="122" width="60" height="22" rx="6" fill="url(#k2)"/><rect x="134" y="140" width="132" height="210" rx="26" fill="url(#t2)"/><rect x="148" y="156" width="20" height="178" rx="10" fill="#fff" opacity="0.28"/><rect x="154" y="210" width="92" height="90" rx="6" fill="#fff" opacity="0.72"/><text x="200.0" y="248" text-anchor="middle" font-family="Georgia, serif" font-size="11" font-weight="700" letter-spacing="2" fill="#5A4A44">IVY &amp; ASH</text><text x="200.0" y="270" text-anchor="middle" font-family="Georgia, serif" font-size="9" font-weight="500" letter-spacing="3" fill="#8A7A74">BODY</text></g><g transform="translate(1270 90) scale(0.9)"><defs><linearGradient id="t3" x1="0" y1="0" x2="1" y2="0"><stop offset="0" stop-color="#AA835A"/><stop offset="0.35" stop-color="#D8B897"/><stop offset="0.6" stop-color="#C89A6A"/><stop offset="1" stop-color="#9A7752"/></linearGradient><linearGradient id="g3" x1="0" y1="0" x2="1" y2="0"><stop offset="0" stop-color="#967B50"/><stop offset="0.35" stop-color="#E1CDAD"/><stop offset="0.6" stop-color="#C8A46A"/><stop offset="1" stop-color="#866E47"/></linearGradient></defs><ellipse cx="200" cy="338" rx="120" ry="14" fill="#000" opacity="0.08"/><rect x="96" y="150" width="208" height="190" rx="30" fill="url(#t3)"/><rect x="112" y="166" width="24" height="160" rx="12" fill="#fff" opacity="0.25"/><rect x="88" y="110" width="224" height="56" rx="14" fill="url(#g3)"/><rect x="96" y="118" width="208" height="8" rx="4" fill="#fff" opacity="0.3"/><rect x="140" y="214" width="120" height="70" rx="6" fill="#fff" opacity="0.7"/><text x="200.0" y="248" text-anchor="middle" font-family="Georgia, serif" font-size="12" font-weight="700" letter-spacing="2" fill="#5A4A44">IVY &amp; ASH</text><text x="200.0" y="268" text-anchor="middle" font-family="Georgia, serif" font-size="9" font-weight="500" letter-spacing="3" fill="#8A7A74">CREAM</text></g></svg>